<svg width="512" height="512" viewBox="0 0 512 512" fill="none" xmlns="http://www.w3.org/2000/svg">
<rect width="512" height="512" fill="#0A0E17"/>
<path d="M355.482 239.53C354.327 241.956 353.518 244.382 352.247 246.347C342.195 261.136 332.259 276.04 321.976 290.714C315.621 299.726 309.266 299.38 303.836 289.905C288.931 263.909 274.142 237.797 259.584 211.569C256.695 206.254 249.416 211.684 246.297 213.88C240.289 218.039 234.512 223.932 227.579 226.358C225.384 227.167 223.073 227.282 220.878 227.167C216.025 226.936 211.057 225.665 206.435 224.163C201.814 222.661 197.418 221.679 193.033 217.924C189.152 214.601 187.307 212.036 185.407 207.294C183.886 203.499 183.413 201.099 183.443 197.011C183.466 193.858 183.785 192.051 184.714 189.038C185.719 185.779 187.256 183.724 188.526 181.182C198.579 160.5 211.519 132.424 218.336 120.87C223.997 111.164 233.01 106.311 244.101 105.734C251.381 105.387 258.775 105.156 266.054 105.618C276.799 106.196 285.927 110.586 291.357 120.407C312.039 157.727 332.605 195.162 353.056 232.597C353.865 234.677 354.558 237.103 355.482 239.53Z" fill="#00945F"/>
<path d="M381.477 406.37C376.855 406.37 372.233 406.486 367.612 406.37C357.675 406.139 350.512 401.171 345.775 392.621C341.037 384.071 341.846 375.868 347.508 367.664C358.831 351.373 369.691 334.851 380.899 318.559C386.098 310.934 389.795 311.165 394.186 319.137C402.274 334.042 410.477 348.831 418.219 363.851C424.92 376.907 422.378 390.079 412.095 399.553C407.473 403.713 402.274 406.139 395.919 406.255C391.066 406.255 386.329 406.255 381.477 406.37C381.477 406.255 381.477 406.255 381.477 406.37Z" fill="#00945F"/>
<path d="M403.431 229.362C398.463 226.127 391.299 227.86 387.371 233.637C376.51 249.698 365.881 265.989 354.904 282.049C344.621 297.185 334.338 312.32 323.477 326.994C316.545 336.468 305.915 335.891 298.983 326.185C297.365 323.99 295.979 321.679 294.592 319.368C283.847 301.344 273.217 283.32 262.241 265.411C253.922 251.893 242.83 247.156 228.503 250.506C218.451 252.817 210.594 259.056 203.2 265.989C202.391 266.682 201.929 267.953 201.582 268.993C198.693 281.356 195.805 293.603 193.263 305.966C193.032 307.006 192.801 308.045 192.57 309.085C191.183 311.743 189.681 314.169 188.064 316.595C183.096 323.643 176.625 329.652 169.346 334.389C169 334.62 168.537 334.851 168.191 335.082C157.33 341.668 144.043 345.481 129.6 345.481C124.863 345.481 120.242 345.018 115.62 344.21C110.652 343.285 105.106 340.281 100.6 343.863C96.4402 347.214 93.0895 353.453 91.0098 358.19C90.5476 359.345 90.0855 360.385 89.7389 361.541C88.2368 366.162 87.3125 371.015 87.3125 375.983V378.641C87.3125 378.756 87.3125 378.872 87.428 378.987C90.0855 396.896 100.137 405.793 117.122 405.908C124.285 405.908 131.333 405.793 138.497 406.024C150.051 406.37 158.485 401.518 164.378 391.697C169.231 383.609 174.199 375.637 178.936 367.433C193.032 342.939 206.897 318.444 220.993 293.95C229.427 279.507 243.639 279.16 252.766 293.256C256.348 298.687 259.699 304.233 263.05 309.779C271.946 324.221 280.381 338.895 289.855 352.875C300.369 368.358 320.82 368.473 331.681 353.337C340.346 341.321 348.549 328.958 356.868 316.711C372.12 294.296 387.256 271.766 402.391 249.235C403.431 247.618 404.587 246 405.511 244.383C408.977 238.375 408.168 232.366 403.431 229.362ZM102.679 385.458C101.871 385.226 101.062 385.111 100.253 384.88C101.062 384.995 101.871 385.226 102.679 385.458ZM109.265 386.382C110.305 386.497 111.46 386.497 112.5 386.497C111.46 386.497 110.421 386.497 109.265 386.382ZM164.725 359.345C165.418 358.537 166.227 357.843 166.92 357.035C169.346 354.493 171.426 351.951 173.506 349.409C170.848 352.875 167.844 356.226 164.725 359.345ZM180.669 339.01C180.669 339.126 180.554 339.126 180.554 339.241C180.554 339.126 180.554 339.126 180.669 339.01ZM178.358 342.592C177.896 343.285 177.434 343.979 176.972 344.556C177.55 343.863 178.012 343.285 178.358 342.592ZM176.163 345.827C175.354 346.983 174.546 348.023 173.737 349.178C174.546 348.023 175.354 346.867 176.163 345.827Z" fill="white"/>
<path d="M430.583 220.234C444.621 220.234 456.002 208.854 456.002 194.815C456.002 180.777 444.621 169.396 430.583 169.396C416.544 169.396 405.164 180.777 405.164 194.815C405.164 208.854 416.544 220.234 430.583 220.234Z" fill="white"/>
<path d="M63.2797 313.014L59.2358 313.245C58.5426 313.245 58.0804 312.783 58.0804 312.09L57.9648 308.739C57.9648 308.046 58.427 307.584 59.1202 307.584L63.1642 307.353C63.8574 307.353 64.3196 307.815 64.3196 308.508L64.4351 311.859C64.4351 312.436 63.8574 313.014 63.2797 313.014Z" fill="white"/>
<path d="M72.1781 312.09L68.1342 312.321C67.441 312.321 66.9788 311.859 66.9788 311.166L66.8633 307.815C66.8633 307.122 67.3254 306.66 68.0187 306.66L72.0626 306.429C72.7558 306.429 73.218 306.891 73.218 307.584L73.3336 310.935C73.3336 311.512 72.8714 312.09 72.1781 312.09Z" fill="white"/>
<path d="M81.7641 310.702L77.7202 310.934C77.0269 310.934 76.5648 310.471 76.5648 309.778L76.4492 306.428C76.4492 305.734 76.9114 305.272 77.6046 305.272L81.6485 305.041C82.3418 305.041 82.8039 305.503 82.8039 306.196L82.9195 309.547C82.804 310.125 82.3418 310.587 81.7641 310.702Z" fill="white"/>
<path d="M90.7758 308.276L86.7319 308.507C86.0386 308.507 85.5765 308.045 85.5765 307.351L85.4609 304.001C85.4609 303.308 85.9231 302.845 86.6163 302.845L90.6603 302.614C91.3535 302.614 91.8157 303.076 91.8157 303.77L91.9312 307.12C91.9312 307.698 91.3535 308.16 90.7758 308.276Z" fill="white"/>
<path d="M99.6742 304.117L95.6303 304.348C94.9371 304.348 94.4749 303.885 94.4749 303.192L94.3594 299.842C94.3594 299.148 94.8215 298.686 95.5148 298.686L99.5587 298.455C100.252 298.455 100.714 298.917 100.714 299.61L100.83 302.961C100.83 303.539 100.367 304.117 99.6742 304.117Z" fill="white"/>
<path d="M109.264 299.264L105.22 299.495C104.527 299.495 104.065 299.033 104.065 298.34L103.949 294.989C103.949 294.296 104.411 293.834 105.105 293.834L109.149 293.603C109.842 293.603 110.304 294.065 110.304 294.758L110.419 298.109C110.419 298.686 109.842 299.264 109.264 299.264Z" fill="white"/>
<path d="M117.932 294.411L113.888 294.642C113.195 294.642 112.733 294.179 112.733 293.486L112.617 290.136C112.617 289.442 113.079 288.98 113.773 288.98L117.817 288.749C118.51 288.749 118.972 289.211 118.972 289.904L119.087 293.255C119.087 293.833 118.625 294.295 117.932 294.411Z" fill="white"/>
<path d="M127.291 287.364L123.248 287.595C122.554 287.595 122.092 287.133 122.092 286.439L121.977 283.089C121.977 282.395 122.439 281.933 123.132 281.933L127.176 281.702C127.869 281.702 128.331 282.164 128.331 282.858L128.447 286.208C128.331 286.786 127.869 287.364 127.291 287.364Z" fill="white"/>
<path d="M135.143 280.317L131.099 280.548C130.406 280.548 129.944 280.086 129.944 279.392L129.828 276.042C129.828 275.348 130.29 274.886 130.984 274.886L135.027 274.655C135.721 274.655 136.183 275.117 136.183 275.811L136.298 279.161C136.298 279.739 135.836 280.317 135.143 280.317Z" fill="white"/>
<path d="M143.12 271.88L139.076 272.111C138.382 272.111 137.92 271.649 137.92 270.956L137.805 267.605C137.805 266.912 138.267 266.45 138.96 266.45L143.004 266.219C143.697 266.219 144.159 266.681 144.159 267.374L144.275 270.725C144.159 271.303 143.697 271.88 143.12 271.88Z" fill="white"/>
<path d="M149.006 263.447L144.962 263.678C144.269 263.678 143.807 263.216 143.807 262.522L143.691 259.172C143.691 258.478 144.154 258.016 144.847 258.016L148.891 257.785C149.584 257.785 150.046 258.247 150.046 258.941L150.162 262.291C150.162 262.984 149.584 263.447 149.006 263.447Z" fill="white"/>
<path d="M154.901 254.665L150.857 254.896C150.164 254.896 149.701 254.434 149.701 253.741L149.586 250.39C149.586 249.697 150.048 249.235 150.741 249.235L154.785 249.004C155.479 249.004 155.941 249.466 155.941 250.159L156.056 253.51C156.056 254.088 155.594 254.665 154.901 254.665Z" fill="white"/>
<path d="M159.526 245.884L155.482 246.115C154.789 246.115 154.326 245.653 154.326 244.96L154.211 241.609C154.211 240.916 154.673 240.454 155.366 240.454L159.41 240.223C160.104 240.223 160.566 240.685 160.566 241.378L160.681 244.729C160.681 245.306 160.219 245.884 159.526 245.884Z" fill="white"/>
<path d="M163.223 237.681L159.179 237.912C158.486 237.912 158.024 237.45 158.024 236.757L157.793 233.406C157.793 232.713 158.255 232.251 158.948 232.251L162.992 232.02C163.686 232.02 164.148 232.482 164.148 233.175L164.263 236.526C164.263 237.103 163.801 237.681 163.223 237.681Z" fill="white"/>
<path d="M165.647 229.708L161.603 229.939C160.91 229.939 160.448 229.477 160.448 228.784L160.332 225.433C160.332 224.74 160.794 224.278 161.487 224.278L165.531 224.047C166.225 224.047 166.687 224.509 166.687 225.202L166.802 228.553C166.687 229.131 166.225 229.708 165.647 229.708Z" fill="white"/>
<path d="M168.651 223.354L164.607 223.585C163.914 223.585 163.451 223.123 163.451 222.43L163.336 219.079C163.336 218.386 163.798 217.923 164.491 217.923L168.535 217.692C169.229 217.692 169.691 218.155 169.691 218.848L169.806 222.198C169.806 222.776 169.229 223.354 168.651 223.354Z" fill="white"/>
<path d="M57.1562 316.249V315.093C58.0806 315.093 59.1204 315.093 60.0448 315.093C60.9691 315.093 61.7779 315.093 62.7022 314.978C63.8576 314.978 64.8975 314.862 66.0529 314.746C66.8617 314.746 67.6705 314.631 68.4792 314.515C69.4036 314.4 70.3279 314.284 71.2522 314.284C72.1765 314.169 73.1008 314.053 74.0252 313.938C74.6029 313.822 75.2961 313.822 75.8738 313.707H75.9894C76.5671 313.591 76.9137 313.591 77.3758 313.476C78.1846 313.36 78.8779 313.244 79.6866 313.013C80.3799 312.898 81.0731 312.782 81.7664 312.667C82.4596 312.551 83.1529 312.32 83.8461 312.205L84.1927 312.089C85.117 311.858 86.0414 311.627 86.9657 311.396L87.3123 311.28C88.2366 311.049 89.2765 310.703 90.3164 310.471C91.4718 310.125 92.6272 309.778 93.7826 309.432C94.7069 309.201 95.6312 308.854 96.5556 308.507C97.5954 308.161 98.6353 307.814 99.5596 307.352C101.524 306.543 103.604 305.734 105.568 304.926C106.492 304.463 107.532 304.001 108.456 303.539L108.918 304.579C107.994 305.041 106.954 305.503 105.914 305.965C103.95 306.89 101.87 307.698 99.9062 308.392C98.8664 308.738 97.8265 309.201 96.7866 309.547C95.8623 309.894 94.938 310.125 94.0136 310.471C92.8582 310.818 91.7029 311.165 90.4319 311.511C89.3921 311.742 88.4677 312.089 87.4279 312.32L87.0812 312.436C86.1569 312.667 85.2326 312.898 84.3083 313.129L83.9617 313.244C83.2684 313.36 82.5751 313.591 81.8819 313.707C81.1887 313.822 80.4954 313.938 79.8022 314.169C78.9934 314.284 78.3002 314.515 77.4914 314.631C77.0292 314.746 76.567 314.746 76.1049 314.862C75.9893 314.862 75.8738 314.862 75.7583 314.862C75.1806 314.978 74.6029 315.093 73.9096 315.093C72.9853 315.209 72.061 315.324 71.1367 315.44C70.2123 315.555 69.288 315.671 68.3637 315.786C67.5549 315.902 66.7461 315.902 65.9373 316.017C64.7819 316.133 63.7421 316.133 62.5867 316.249C61.6623 316.249 60.8535 316.364 59.9292 316.364C59.1204 316.248 58.0806 316.249 57.1562 316.249Z" fill="#0A0E17"/>
<path d="M63.508 321.68C62.4681 321.68 61.5438 321.68 60.5039 321.68V320.524C61.5438 320.524 62.4681 320.524 63.508 320.524C120.007 320.524 168.996 280.432 180.088 225.088C180.55 222.777 181.013 220.351 181.244 218.155L182.399 218.271C182.052 220.582 181.706 223.008 181.244 225.319C170.036 281.125 120.585 321.68 63.508 321.68Z" fill="#0A0E17"/>
<path d="M69.9797 326.07C67.9 326.07 65.8203 326.07 63.625 325.954V324.799C65.8203 324.914 67.9 324.914 69.9797 324.914C129.021 324.914 179.512 281.702 187.253 224.51L188.409 224.625C180.552 282.511 129.599 326.07 69.9797 326.07Z" fill="#0A0E17"/>
<path d="M71.0186 328.265C69.2855 328.265 67.4368 328.265 65.4727 328.15V326.994C67.4368 327.11 69.2855 327.11 71.0186 327.11C130.522 327.11 181.013 283.551 188.408 225.896L189.563 226.012C182.053 284.36 131.1 328.265 71.0186 328.265Z" fill="#0A0E17"/>
<path d="M72.9884 333.118C71.9486 333.118 71.0242 333.118 69.9844 333.118V331.962C71.0242 331.962 71.9486 331.962 72.9884 331.962C129.95 331.962 179.055 291.407 189.8 235.486C190.262 233.291 190.609 231.095 190.84 229.016L191.995 229.131C191.764 231.326 191.302 233.522 190.955 235.717C180.094 292.216 130.528 333.118 72.9884 333.118Z" fill="#0A0E17"/>
<path d="M206.666 276.157C206.666 320.293 170.848 356.111 126.712 356.111C106.607 356.111 88.2366 348.716 74.1406 336.353C75.6427 336.469 77.1447 336.469 78.6467 336.469C135.839 336.469 183.557 296.376 195.343 242.765C195.805 240.801 196.151 238.952 196.498 236.988C201.813 246.347 205.163 256.861 206.319 268.184C206.55 270.842 206.666 273.499 206.666 276.157Z" fill="#0A0E17"/>
<path d="M57.1562 316.249V315.093C58.0806 315.093 59.1204 315.093 60.0448 315.093C60.9691 315.093 61.7779 315.093 62.7022 314.978C63.8576 314.978 64.8975 314.862 66.0529 314.746C66.8617 314.746 67.6705 314.631 68.4792 314.515C69.4036 314.4 70.3279 314.284 71.2522 314.284C72.1765 314.169 73.1008 314.053 74.0252 313.938C74.6029 313.822 75.2961 313.822 75.8738 313.707H75.9894C76.5671 313.591 76.9137 313.591 77.3758 313.476C78.1846 313.36 78.8779 313.244 79.6866 313.013C80.3799 312.898 81.0731 312.782 81.7664 312.667C82.4596 312.551 83.1529 312.32 83.8461 312.205L84.1927 312.089C85.117 311.858 86.0414 311.627 86.9657 311.396L87.3123 311.28C88.2366 311.049 89.2765 310.703 90.3164 310.471C91.4718 310.125 92.6272 309.778 93.7826 309.432C94.7069 309.201 95.6312 308.854 96.5556 308.507C97.5954 308.161 98.6353 307.814 99.5596 307.352C101.524 306.543 103.604 305.734 105.568 304.926C106.492 304.463 107.532 304.001 108.456 303.539L108.918 304.579C107.994 305.041 106.954 305.503 105.914 305.965C103.95 306.89 101.87 307.698 99.9062 308.392C98.8664 308.738 97.8265 309.201 96.7866 309.547C95.8623 309.894 94.938 310.125 94.0136 310.471C92.8582 310.818 91.7029 311.165 90.4319 311.511C89.3921 311.742 88.4677 312.089 87.4279 312.32L87.0812 312.436C86.1569 312.667 85.2326 312.898 84.3083 313.129L83.9617 313.244C83.2684 313.36 82.5751 313.591 81.8819 313.707C81.1887 313.822 80.4954 313.938 79.8022 314.169C78.9934 314.284 78.3002 314.515 77.4914 314.631C77.0292 314.746 76.567 314.746 76.1049 314.862C75.9893 314.862 75.8738 314.862 75.7583 314.862C75.1806 314.978 74.6029 315.093 73.9096 315.093C72.9853 315.209 72.061 315.324 71.1367 315.44C70.2123 315.555 69.288 315.671 68.3637 315.786C67.5549 315.902 66.7461 315.902 65.9373 316.017C64.7819 316.133 63.7421 316.133 62.5867 316.249C61.6623 316.249 60.8535 316.364 59.9292 316.364C59.1204 316.248 58.0806 316.249 57.1562 316.249Z" fill="#0A0E17"/>
<path d="M78.648 337.046C76.9149 337.046 75.4129 337.046 74.0264 336.93H73.7953L73.6798 336.815C72.2933 335.544 70.9068 334.273 69.5203 332.887L68.4805 331.847H69.8669C70.9068 331.847 71.8311 331.847 72.871 331.847C129.832 331.847 178.937 291.292 189.682 235.37C190.145 233.175 190.491 230.98 190.722 228.9L190.953 227.514L191.762 228.669C193.611 231.095 195.344 233.868 196.961 236.641L197.077 236.872V237.104C196.73 239.068 196.384 241.032 195.922 242.881C190.145 269.224 175.355 293.025 154.443 310.125C133.068 327.456 106.147 337.046 78.648 337.046ZM74.373 335.775C75.6439 335.775 77.146 335.891 78.7636 335.891C106.031 335.891 132.605 326.416 153.749 309.316C174.547 292.447 189.105 268.762 194.882 242.649C195.228 240.916 195.69 239.068 195.922 237.104C194.651 234.793 193.264 232.597 191.762 230.518C191.531 232.251 191.184 233.868 190.838 235.602C180.093 291.985 130.526 333.002 72.871 333.002C72.2933 333.002 71.8311 333.002 71.2534 333.002C72.4088 334.042 73.3331 334.966 74.373 335.775Z" fill="white"/>
<path d="M196.501 236.988C196.155 238.952 195.808 240.801 195.346 242.765C183.561 296.376 135.842 336.468 78.6499 336.468C77.1479 336.468 75.6459 336.468 74.1438 336.353C72.7574 335.082 71.3709 333.811 69.9844 332.54C71.0242 332.54 71.9486 332.54 72.9884 332.54C131.221 332.54 179.863 290.83 190.378 235.601C190.84 233.406 191.186 231.211 191.417 229.016C193.266 231.558 194.884 234.215 196.501 236.988Z" fill="white"/>
<path d="M63.508 321.68C62.4681 321.68 61.5438 321.68 60.5039 321.68V320.524C61.5438 320.524 62.4681 320.524 63.508 320.524C120.007 320.524 168.996 280.432 180.088 225.088C180.55 222.777 181.013 220.351 181.244 218.155L182.399 218.271C182.052 220.582 181.706 223.008 181.244 225.319C170.036 281.125 120.585 321.68 63.508 321.68Z" fill="#0A0E17"/>
<path d="M69.9797 326.07C67.9 326.07 65.8203 326.07 63.625 325.954V324.799C65.8203 324.914 67.9 324.914 69.9797 324.914C129.021 324.914 179.512 281.702 187.253 224.51L188.409 224.625C180.552 282.511 129.599 326.07 69.9797 326.07Z" fill="#0A0E17"/>
<path d="M71.0186 328.265C69.2855 328.265 67.4368 328.265 65.4727 328.15V326.994C67.4368 327.11 69.2855 327.11 71.0186 327.11C130.522 327.11 181.013 283.551 188.408 225.896L189.563 226.012C182.053 284.36 131.1 328.265 71.0186 328.265Z" fill="#0A0E17"/>
<path d="M72.9884 333.118C71.9486 333.118 71.0242 333.118 69.9844 333.118V331.962C71.0242 331.962 71.9486 331.962 72.9884 331.962C129.95 331.962 179.055 291.407 189.8 235.486C190.262 233.291 190.609 231.095 190.84 229.016L191.995 229.131C191.764 231.326 191.302 233.522 190.955 235.717C180.094 292.216 130.528 333.118 72.9884 333.118Z" fill="#0A0E17"/>
<path d="M57.1562 316.249V315.093C58.0806 315.093 59.1204 315.093 60.0448 315.093C60.9691 315.093 61.7779 315.093 62.7022 314.978C63.8576 314.978 64.8975 314.862 66.0529 314.746C66.8617 314.746 67.6705 314.631 68.4792 314.515C69.4036 314.4 70.3279 314.284 71.2522 314.284C72.1765 314.169 73.1008 314.053 74.0252 313.938C74.6029 313.822 75.2961 313.822 75.8738 313.707H75.9894C76.5671 313.591 76.9137 313.591 77.3758 313.476C78.1846 313.36 78.8779 313.244 79.6866 313.013C80.3799 312.898 81.0731 312.782 81.7664 312.667C82.4596 312.551 83.1529 312.32 83.8461 312.205L84.1927 312.089C85.117 311.858 86.0414 311.627 86.9657 311.396L87.3123 311.28C88.2366 311.049 89.2765 310.703 90.3164 310.471C91.4718 310.125 92.6272 309.778 93.7826 309.432C94.7069 309.201 95.6312 308.854 96.5556 308.507C97.5954 308.161 98.6353 307.814 99.5596 307.352C101.524 306.543 103.604 305.734 105.568 304.926C106.492 304.463 107.532 304.001 108.456 303.539L108.918 304.579C107.994 305.041 106.954 305.503 105.914 305.965C103.95 306.89 101.87 307.698 99.9062 308.392C98.8664 308.738 97.8265 309.201 96.7866 309.547C95.8623 309.894 94.938 310.125 94.0136 310.471C92.8582 310.818 91.7029 311.165 90.4319 311.511C89.3921 311.742 88.4677 312.089 87.4279 312.32L87.0812 312.436C86.1569 312.667 85.2326 312.898 84.3083 313.129L83.9617 313.244C83.2684 313.36 82.5751 313.591 81.8819 313.707C81.1887 313.822 80.4954 313.938 79.8022 314.169C78.9934 314.284 78.3002 314.515 77.4914 314.631C77.0292 314.746 76.567 314.746 76.1049 314.862C75.9893 314.862 75.8738 314.862 75.7583 314.862C75.1806 314.978 74.6029 315.093 73.9096 315.093C72.9853 315.209 72.061 315.324 71.1367 315.44C70.2123 315.555 69.288 315.671 68.3637 315.786C67.5549 315.902 66.7461 315.902 65.9373 316.017C64.7819 316.133 63.7421 316.133 62.5867 316.249C61.6623 316.249 60.8535 316.364 59.9292 316.364C59.1204 316.248 58.0806 316.249 57.1562 316.249Z" fill="#0A0E17"/>
<path d="M63.508 321.68C62.4681 321.68 61.5438 321.68 60.5039 321.68V320.524C61.5438 320.524 62.4681 320.524 63.508 320.524C120.007 320.524 168.996 280.432 180.088 225.088C180.55 222.777 181.013 220.351 181.244 218.155L182.399 218.271C182.052 220.582 181.706 223.008 181.244 225.319C170.036 281.125 120.585 321.68 63.508 321.68Z" fill="#0A0E17"/>
<path d="M69.9797 326.07C67.9 326.07 65.8203 326.07 63.625 325.954V324.799C65.8203 324.914 67.9 324.914 69.9797 324.914C129.021 324.914 179.512 281.702 187.253 224.51L188.409 224.625C180.552 282.511 129.599 326.07 69.9797 326.07Z" fill="#0A0E17"/>
<path d="M71.0186 328.265C69.2855 328.265 67.4368 328.265 65.4727 328.15V326.994C67.4368 327.11 69.2855 327.11 71.0186 327.11C130.522 327.11 181.013 283.551 188.408 225.896L189.563 226.012C182.053 284.36 131.1 328.265 71.0186 328.265Z" fill="#0A0E17"/>
<path d="M72.9884 333.118C71.9486 333.118 71.0242 333.118 69.9844 333.118V331.962C71.0242 331.962 71.9486 331.962 72.9884 331.962C129.95 331.962 179.055 291.407 189.8 235.486C190.262 233.291 190.609 231.095 190.84 229.016L191.995 229.131C191.764 231.326 191.302 233.522 190.955 235.717C180.094 292.216 130.528 333.118 72.9884 333.118Z" fill="white"/>
<path d="M63.5095 321.679C62.4696 321.679 61.5453 321.679 60.5054 321.679H60.1588L60.0433 321.448C58.8879 319.715 57.7325 317.866 56.6926 316.017L56.2305 315.209H57.2703C58.1946 315.209 59.2345 315.209 60.1588 315.209C61.0832 315.209 61.8919 315.209 62.8163 315.093C63.9717 315.093 65.0115 314.977 66.167 314.862C66.9757 314.862 67.7845 314.746 68.5933 314.631C69.5176 314.515 70.442 314.4 71.3663 314.4C72.2906 314.284 73.2149 314.169 74.1392 314.053C74.7169 313.938 75.4102 313.938 75.9879 313.822H76.1034C76.6811 313.707 77.0277 313.707 77.4899 313.591C78.2987 313.475 78.9919 313.36 79.8007 313.129C80.494 313.013 81.1872 312.898 81.8804 312.782C82.5737 312.667 83.2669 312.436 83.9602 312.32L84.3068 312.205C85.2311 311.973 86.1554 311.742 87.0797 311.511L87.4264 311.396C88.3507 311.165 89.3906 310.818 90.4304 310.587C91.5859 310.24 92.7413 309.894 93.8967 309.547C94.821 309.316 95.7453 308.969 96.5541 308.623C97.5939 308.276 98.6338 307.93 99.5581 307.467C101.522 306.774 103.486 305.965 105.566 305.041C106.491 304.579 107.53 304.117 108.455 303.654L108.57 303.539C109.379 303.192 110.188 302.846 110.881 302.384C111.69 301.921 112.499 301.575 113.307 301.113C115.618 299.957 117.929 298.571 120.355 297.069C120.355 297.069 120.471 296.953 120.586 296.953C121.28 296.491 121.973 296.144 122.551 295.682L122.782 295.451C123.591 294.989 124.284 294.411 125.093 293.949C126.595 292.909 127.981 291.869 129.483 290.83C130.061 290.367 130.639 289.905 131.216 289.443L131.909 288.981C133.989 287.248 135.953 285.63 137.802 283.897C137.918 283.782 138.033 283.666 138.149 283.55L138.264 283.435C138.842 282.973 139.304 282.395 139.882 281.933C140.575 281.355 141.153 280.662 141.846 279.969C142.539 279.391 143.117 278.698 143.695 278.005L143.81 277.889C144.388 277.311 144.966 276.734 145.428 276.04L145.774 275.694C146.352 275.116 146.814 274.538 147.392 273.845C147.97 273.267 148.432 272.574 148.894 271.996C149.125 271.765 149.241 271.534 149.472 271.303L150.974 269.455C151.436 268.877 151.898 268.299 152.36 267.721L152.707 267.259C153.169 266.682 153.631 266.104 153.978 265.526L154.209 265.18C154.671 264.486 155.133 263.793 155.595 263.1C155.942 262.638 156.288 262.175 156.635 261.598L157.791 259.865C157.791 259.865 157.791 259.749 157.906 259.749C158.368 259.056 158.715 258.478 159.177 257.785C159.293 257.669 159.408 257.554 159.408 257.438C159.755 256.861 160.101 256.283 160.332 255.821C161.141 254.55 161.95 253.048 162.759 251.315C163.105 250.621 163.452 249.928 163.799 249.235L163.914 249.119C163.914 249.004 164.03 249.004 164.03 248.888C164.492 248.08 164.838 247.271 165.185 246.462C165.532 245.653 165.994 244.844 166.34 243.92C166.687 243.227 166.918 242.418 167.265 241.725C167.265 241.609 167.38 241.494 167.38 241.494V241.378C167.958 239.876 168.651 238.259 169.345 236.179C169.691 235.255 169.922 234.446 170.269 233.521C170.615 232.597 170.847 231.788 171.078 230.864C171.309 229.94 171.655 229.131 171.886 228.207C172.118 227.282 172.349 226.358 172.58 225.434C172.811 224.509 173.042 223.585 173.273 222.661C173.504 221.736 173.735 220.812 173.851 219.888C174.082 218.617 174.313 217.461 174.544 216.19C174.659 215.728 174.659 215.266 174.775 214.804V214.573C174.891 213.995 175.006 213.417 175.006 212.84L175.122 211.8L175.93 212.378C178.241 214.111 180.321 215.959 182.285 217.808L182.516 218.039V218.386C182.17 220.696 181.823 223.123 181.361 225.434C170.038 281.124 120.586 321.679 63.5095 321.679ZM60.8521 320.523C61.7764 320.523 62.5852 320.523 63.5095 320.523C120.009 320.523 168.998 280.431 180.09 225.087C180.552 222.892 180.899 220.581 181.245 218.386C179.628 216.768 177.779 215.266 175.93 213.764C175.93 213.995 175.815 214.226 175.815 214.573V214.804C175.699 215.266 175.699 215.728 175.584 216.19C175.353 217.461 175.122 218.732 174.89 219.888C174.659 220.812 174.544 221.736 174.313 222.661C174.082 223.585 173.851 224.509 173.62 225.434C173.388 226.358 173.157 227.282 172.926 228.207C172.695 229.131 172.464 230.055 172.118 230.98C171.886 231.904 171.54 232.828 171.309 233.637C171.078 234.561 170.731 235.37 170.384 236.294C169.691 238.374 168.998 239.992 168.42 241.494C168.42 241.609 168.305 241.725 168.305 241.84C167.958 242.649 167.727 243.342 167.38 244.151C167.034 244.96 166.572 245.884 166.225 246.693C165.878 247.502 165.416 248.311 165.07 249.119C165.07 249.235 164.954 249.235 164.954 249.35L164.838 249.466C164.492 250.159 164.145 250.853 163.799 251.546C162.874 253.279 162.066 254.781 161.257 256.052C160.91 256.63 160.563 257.207 160.332 257.669C160.217 257.785 160.217 257.9 160.101 258.132C159.755 258.825 159.293 259.518 158.83 260.211L157.675 262.06C157.328 262.522 156.982 263.1 156.635 263.562C156.173 264.255 155.711 264.948 155.133 265.642L154.902 265.988C154.44 266.566 153.978 267.259 153.631 267.837L153.4 268.184C152.938 268.877 152.476 269.455 152.013 270.032L150.511 271.996C150.28 272.227 150.165 272.459 149.934 272.69C149.472 273.267 148.894 273.961 148.316 274.538C147.738 275.116 147.276 275.809 146.699 276.387L146.352 276.734C145.774 277.311 145.197 278.005 144.619 278.582L144.503 278.698C143.926 279.391 143.232 279.969 142.655 280.662C141.961 281.355 141.384 281.933 140.691 282.626C140.113 283.204 139.651 283.666 139.073 284.128L138.957 284.244C138.842 284.359 138.726 284.475 138.611 284.59C136.762 286.323 134.682 288.057 132.603 289.79L131.909 290.252C131.332 290.714 130.754 291.176 130.176 291.638C128.674 292.794 127.288 293.834 125.786 294.873C125.093 295.451 124.284 295.913 123.475 296.375L123.244 296.607C122.551 297.069 121.973 297.415 121.28 297.877C121.164 297.993 121.049 297.993 121.049 297.993C118.622 299.495 116.312 300.882 114.001 302.037C113.192 302.499 112.383 302.846 111.574 303.308C110.766 303.77 109.957 304.117 109.148 304.579H109.032C108.108 305.041 107.184 305.503 106.144 305.85C104.064 306.774 102.1 307.583 100.136 308.276C99.096 308.623 98.0561 309.085 97.0162 309.432C96.0919 309.778 95.1676 310.009 94.2433 310.356C93.0879 310.702 91.9325 311.049 90.6615 311.396C89.6216 311.627 88.6973 311.973 87.6574 312.205L87.3108 312.32C86.3865 312.551 85.4622 312.782 84.5379 313.013L84.1912 313.129C83.498 313.244 82.8048 313.475 82.1115 313.591C81.4183 313.707 80.7251 313.822 80.0318 314.053C79.223 314.169 78.5298 314.4 77.721 314.515C77.2588 314.631 76.7967 314.631 76.3345 314.746C76.219 314.746 76.1034 314.746 75.9879 314.746C75.4102 314.862 74.8325 314.977 74.1392 314.977C73.2149 315.093 72.2906 315.209 71.3663 315.324C70.442 315.44 69.5176 315.555 68.5933 315.671C67.7845 315.786 66.9757 315.786 66.167 315.902C65.0115 316.017 63.9717 316.017 62.8163 316.133C61.8919 316.133 61.0832 316.248 60.1588 316.248C59.5811 316.248 58.8879 316.248 58.3102 316.248C59.0034 317.635 59.9278 319.137 60.8521 320.523Z" fill="white"/>
<path d="M181.824 218.156C181.478 220.466 181.131 222.893 180.669 225.204C169.693 279.854 121.397 321.102 63.511 321.102C62.4711 321.102 61.5468 321.102 60.5069 321.102C59.3515 319.369 58.1961 317.521 57.1562 315.672C58.0806 315.672 59.0049 315.672 59.9292 315.672C60.8535 315.672 61.6623 315.672 62.5867 315.556C63.7421 315.556 64.7819 315.441 65.9373 315.325C66.7461 315.325 67.5549 315.21 68.3637 315.094C69.288 314.979 70.2123 314.863 71.1367 314.863C72.061 314.748 72.9853 314.632 73.9096 314.516C74.4873 314.401 75.1806 314.285 75.7583 314.285H75.8738C76.336 314.17 76.7981 314.17 77.2603 314.054C78.0691 313.939 78.7623 313.823 79.5711 313.592C80.2643 313.477 80.9576 313.361 81.6508 313.13C82.4596 313.014 83.2684 312.783 84.1927 312.552C85.117 312.321 86.0414 312.09 86.9657 311.859C87.0813 311.859 87.1968 311.859 87.3123 311.743C88.3522 311.512 89.2765 311.166 90.3164 310.935C91.4718 310.588 92.6272 310.241 93.8981 309.895C94.8225 309.664 95.7468 309.317 96.6711 308.97C97.711 308.624 98.7508 308.277 99.6752 307.815C101.755 307.006 103.719 306.198 105.683 305.389C106.608 304.927 107.647 304.464 108.572 304.002C109.381 303.656 110.189 303.193 110.998 302.731C111.807 302.269 112.616 301.923 113.424 301.46C115.851 300.189 118.162 298.803 120.472 297.416C120.588 297.416 120.588 297.301 120.704 297.301C121.397 296.839 122.206 296.377 122.899 295.914C123.708 295.452 124.401 294.875 125.21 294.412C126.712 293.373 128.098 292.333 129.6 291.293C130.409 290.715 131.218 290.022 132.026 289.444C134.106 287.827 136.07 286.093 138.035 284.36C138.15 284.245 138.381 284.014 138.497 283.898C139.074 283.436 139.537 282.858 140.114 282.396C140.808 281.818 141.385 281.125 142.078 280.432C142.772 279.739 143.349 279.161 143.927 278.468L144.043 278.352C144.62 277.775 145.198 277.197 145.776 276.504C145.891 276.388 146.007 276.273 146.122 276.157C146.7 275.579 147.162 275.002 147.74 274.308C148.318 273.731 148.78 273.037 149.358 272.46C149.589 272.229 149.704 271.998 149.935 271.766C150.397 271.189 150.744 270.727 151.206 270.149C151.322 270.033 151.437 269.918 151.437 269.802C151.899 269.225 152.362 268.531 152.824 267.954C152.939 267.838 152.939 267.723 153.055 267.607C153.517 267.029 153.979 266.452 154.326 265.758C154.441 265.643 154.557 265.527 154.557 265.412C155.019 264.719 155.597 264.025 156.059 263.332C156.406 262.87 156.752 262.408 157.099 261.83L158.254 260.097C158.254 260.097 158.254 259.981 158.37 259.981C158.832 259.288 159.178 258.595 159.641 257.902C159.756 257.786 159.872 257.671 159.872 257.555C160.218 256.977 160.565 256.4 160.796 255.937C161.72 254.435 162.529 252.933 163.222 251.431C163.569 250.738 163.916 250.045 164.262 249.352C164.378 249.236 164.378 249.121 164.493 249.005C164.956 248.196 165.302 247.387 165.649 246.579C165.995 245.77 166.458 244.846 166.804 244.037C167.151 243.344 167.382 242.535 167.728 241.841C167.844 241.726 167.844 241.61 167.844 241.495C168.537 239.762 169.231 238.029 169.808 236.296C170.155 235.371 170.386 234.562 170.733 233.638C171.079 232.714 171.31 231.905 171.541 230.981C171.772 230.056 172.119 229.132 172.35 228.208C172.581 227.283 172.812 226.359 173.043 225.435C173.274 224.51 173.505 223.586 173.737 222.662C173.968 221.737 174.199 220.813 174.314 219.889C174.545 218.618 174.776 217.462 175.008 216.191C175.123 215.729 175.123 215.267 175.239 214.805C175.354 214.112 175.47 213.534 175.585 212.841C177.665 214.458 179.86 216.307 181.824 218.156Z" fill="white"/>
<path d="M57.1562 316.249V315.093C58.0806 315.093 59.1204 315.093 60.0448 315.093C60.9691 315.093 61.7779 315.093 62.7022 314.978C63.8576 314.978 64.8975 314.862 66.0529 314.746C66.8617 314.746 67.6705 314.631 68.4792 314.515C69.4036 314.4 70.3279 314.284 71.2522 314.284C72.1765 314.169 73.1008 314.053 74.0252 313.938C74.6029 313.822 75.2961 313.822 75.8738 313.707H75.9894C76.5671 313.591 76.9137 313.591 77.3758 313.476C78.1846 313.36 78.8779 313.244 79.6866 313.013C80.3799 312.898 81.0731 312.782 81.7664 312.667C82.4596 312.551 83.1529 312.32 83.8461 312.205L84.1927 312.089C85.117 311.858 86.0414 311.627 86.9657 311.396L87.3123 311.28C88.2366 311.049 89.2765 310.703 90.3164 310.471C91.4718 310.125 92.6272 309.778 93.7826 309.432C94.7069 309.201 95.6312 308.854 96.5556 308.507C97.5954 308.161 98.6353 307.814 99.5596 307.352C101.524 306.543 103.604 305.734 105.568 304.926C106.492 304.463 107.532 304.001 108.456 303.539L108.918 304.579C107.994 305.041 106.954 305.503 105.914 305.965C103.95 306.89 101.87 307.698 99.9062 308.392C98.8664 308.738 97.8265 309.201 96.7866 309.547C95.8623 309.894 94.938 310.125 94.0136 310.471C92.8582 310.818 91.7029 311.165 90.4319 311.511C89.3921 311.742 88.4677 312.089 87.4279 312.32L87.0812 312.436C86.1569 312.667 85.2326 312.898 84.3083 313.129L83.9617 313.244C83.2684 313.36 82.5751 313.591 81.8819 313.707C81.1887 313.822 80.4954 313.938 79.8022 314.169C78.9934 314.284 78.3002 314.515 77.4914 314.631C77.0292 314.746 76.567 314.746 76.1049 314.862C75.9893 314.862 75.8738 314.862 75.7583 314.862C75.1806 314.978 74.6029 315.093 73.9096 315.093C72.9853 315.209 72.061 315.324 71.1367 315.44C70.2123 315.555 69.288 315.671 68.3637 315.786C67.5549 315.902 66.7461 315.902 65.9373 316.017C64.7819 316.133 63.7421 316.133 62.5867 316.249C61.6623 316.249 60.8535 316.364 59.9292 316.364C59.1204 316.248 58.0806 316.249 57.1562 316.249Z" fill="#0A0E17"/>
<path d="M57.1562 316.249V315.093C58.0806 315.093 59.1204 315.093 60.0448 315.093C60.9691 315.093 61.7779 315.093 62.7022 314.978C63.8576 314.978 64.8975 314.862 66.0529 314.746C66.8617 314.746 67.6705 314.631 68.4792 314.515C69.4036 314.4 70.3279 314.284 71.2522 314.284C72.1765 314.169 73.1008 314.053 74.0252 313.938C74.6029 313.822 75.2961 313.822 75.8738 313.707H75.9894C76.5671 313.591 76.9137 313.591 77.3758 313.476C78.1846 313.36 78.8779 313.244 79.6866 313.013C80.3799 312.898 81.0731 312.782 81.7664 312.667C82.4596 312.551 83.1529 312.32 83.8461 312.205L84.1927 312.089C85.117 311.858 86.0414 311.627 86.9657 311.396L87.3123 311.28C88.2366 311.049 89.2765 310.703 90.3164 310.471C91.4718 310.125 92.6272 309.778 93.7826 309.432C94.7069 309.201 95.6312 308.854 96.5556 308.507C97.5954 308.161 98.6353 307.814 99.5596 307.352C101.524 306.543 103.604 305.734 105.568 304.926C106.492 304.463 107.532 304.001 108.456 303.539L108.918 304.579C107.994 305.041 106.954 305.503 105.914 305.965C103.95 306.89 101.87 307.698 99.9062 308.392C98.8664 308.738 97.8265 309.201 96.7866 309.547C95.8623 309.894 94.938 310.125 94.0136 310.471C92.8582 310.818 91.7029 311.165 90.4319 311.511C89.3921 311.742 88.4677 312.089 87.4279 312.32L87.0812 312.436C86.1569 312.667 85.2326 312.898 84.3083 313.129L83.9617 313.244C83.2684 313.36 82.5751 313.591 81.8819 313.707C81.1887 313.822 80.4954 313.938 79.8022 314.169C78.9934 314.284 78.3002 314.515 77.4914 314.631C77.0292 314.746 76.567 314.746 76.1049 314.862C75.9893 314.862 75.8738 314.862 75.7583 314.862C75.1806 314.978 74.6029 315.093 73.9096 315.093C72.9853 315.209 72.061 315.324 71.1367 315.44C70.2123 315.555 69.288 315.671 68.3637 315.786C67.5549 315.902 66.7461 315.902 65.9373 316.017C64.7819 316.133 63.7421 316.133 62.5867 316.249C61.6623 316.249 60.8535 316.364 59.9292 316.364C59.1204 316.248 58.0806 316.249 57.1562 316.249Z" fill="#0A0E17"/>
<path d="M60.046 321.332C58.8906 319.599 57.7352 317.751 56.6953 315.902L57.7352 315.324C58.775 317.173 59.9304 319.022 61.0858 320.639L60.046 321.332Z" fill="#0A0E17"/>
<path d="M188.986 226.012C181.592 283.435 131.563 327.803 71.0196 327.803C69.1709 327.803 67.3223 327.803 65.4737 327.687C64.7804 326.878 64.2027 326.185 63.625 325.376C65.7047 325.492 67.7845 325.492 69.9797 325.492C130.292 325.492 180.09 281.586 187.831 224.625C188.178 224.972 188.64 225.549 188.986 226.012Z" fill="white"/>
<path d="M71.0194 328.38C69.2863 328.38 67.4376 328.38 65.4734 328.265H65.2423L65.0113 328.034C64.318 327.225 63.7403 326.532 63.1626 325.723L62.2383 324.568L63.6248 324.683C65.82 324.799 67.8998 324.799 69.9795 324.799C129.021 324.799 179.396 281.702 187.138 224.51L187.369 223.123L188.293 224.163C188.64 224.51 188.986 224.856 189.217 225.318L189.679 225.896V226.127C182.169 284.36 131.216 328.38 71.0194 328.38ZM65.82 326.994C67.6687 327.109 69.4018 327.109 71.0194 327.109C130.407 327.109 180.783 283.782 188.293 226.243V226.127C179.743 283.204 129.136 326.185 69.9795 326.185C68.3619 326.185 66.7444 326.185 65.0113 326.07C65.2424 326.301 65.589 326.647 65.82 326.994Z" fill="white"/>
<path d="M59.9284 321.305C58.773 319.572 57.6176 317.723 56.5777 315.875L56 314.835H57.1554C58.0797 314.835 59.1196 314.835 60.0439 314.835C60.9682 314.835 61.777 314.835 62.7014 314.719C63.8568 314.719 64.8966 314.604 66.052 314.488C66.8608 314.488 67.6696 314.373 68.4784 314.257C69.4027 314.142 70.327 314.142 71.2514 314.026C72.1757 313.911 73.1 313.795 74.0243 313.68C74.602 313.564 75.2953 313.564 75.873 313.448H75.9885C76.5662 313.333 76.9128 313.333 77.375 313.217C78.1838 313.102 78.877 312.986 79.6858 312.755C80.379 312.64 81.0723 312.524 81.7655 312.409C82.4588 312.293 83.0365 312.177 83.7297 311.946L84.3074 311.831C85.2317 311.6 86.1561 311.369 87.0804 311.138L87.427 311.022C88.3513 310.791 89.3912 310.444 90.4311 310.213C91.5865 309.867 92.7419 309.52 93.8973 309.173C94.8216 308.942 95.7459 308.596 96.6703 308.249C97.7101 307.902 98.75 307.556 99.6743 307.094C101.639 306.285 103.718 305.476 105.682 304.667C106.607 304.205 107.647 303.743 108.571 303.281C109.38 302.934 110.073 302.588 110.882 302.125L110.997 302.01C111.806 301.548 112.615 301.201 113.424 300.739C115.734 299.584 118.045 298.197 120.472 296.695C120.472 296.695 120.587 296.579 120.703 296.579C121.396 296.117 121.974 295.771 122.551 295.424L122.898 295.193C123.707 294.731 124.4 294.153 125.209 293.691C126.595 292.767 128.097 291.727 129.599 290.571C130.177 290.109 130.755 289.647 131.332 289.185L131.91 288.723C133.99 286.99 135.954 285.372 137.803 283.639C137.918 283.523 138.034 283.408 138.149 283.292L138.265 283.177C138.843 282.715 139.305 282.137 139.882 281.675C140.576 281.097 141.153 280.404 141.847 279.826C142.424 279.248 143.118 278.555 143.695 277.862L143.811 277.746C144.388 277.169 144.966 276.591 145.428 276.013L145.891 275.551C146.353 274.973 146.93 274.396 147.393 273.818C147.97 273.24 148.432 272.547 148.895 271.969C149.126 271.738 149.241 271.507 149.472 271.276L150.974 269.427C151.436 268.85 151.899 268.157 152.361 267.579L152.592 267.232C153.054 266.655 153.401 266.077 153.863 265.499L154.094 265.152C154.556 264.459 155.018 263.766 155.48 263.073C155.827 262.611 156.174 262.148 156.52 261.571L157.676 259.838C157.676 259.838 157.676 259.722 157.791 259.722C158.253 259.029 158.6 258.451 158.947 257.758C159.062 257.642 159.178 257.527 159.178 257.411C159.524 256.834 159.871 256.256 160.102 255.794C160.911 254.407 161.72 253.021 162.528 251.288C162.875 250.594 163.222 249.901 163.568 249.208L163.684 249.092C163.684 248.977 163.799 248.977 163.799 248.861C164.261 248.052 164.608 247.244 164.955 246.435C165.301 245.626 165.763 244.817 166.11 243.893C166.457 243.2 166.688 242.391 167.034 241.698V241.582C167.034 241.582 167.034 241.467 167.15 241.467V241.351C167.728 239.849 168.421 238.232 169.114 236.152C169.461 235.228 169.692 234.419 170.038 233.494C170.385 232.57 170.616 231.761 170.847 230.837C171.078 229.913 171.425 229.104 171.656 228.18C171.887 227.255 172.118 226.331 172.349 225.407C172.58 224.482 172.811 223.558 173.043 222.634C173.274 221.709 173.505 220.785 173.62 219.861C173.851 218.59 174.082 217.434 174.313 216.163C174.429 215.586 174.429 215.239 174.545 214.777C174.66 214.084 174.776 213.39 174.891 212.813L175.007 211.657L175.931 212.35C178.126 214.084 180.322 215.932 182.286 217.781L181.361 218.705C179.628 217.088 177.895 215.47 175.931 214.084C175.931 214.315 175.815 214.661 175.815 214.892C175.7 215.355 175.7 215.817 175.584 216.279C175.353 217.665 175.122 218.936 174.891 220.092C174.66 221.016 174.545 221.94 174.313 222.865C174.082 223.789 173.851 224.713 173.62 225.638C173.389 226.562 173.158 227.486 172.927 228.411C172.696 229.335 172.465 230.259 172.118 231.184C171.887 232.108 171.54 233.032 171.309 233.841C171.078 234.765 170.732 235.574 170.385 236.498C169.692 238.578 168.999 240.196 168.421 241.698C168.421 241.813 168.305 241.929 168.305 242.044C167.959 242.853 167.728 243.546 167.381 244.355C167.034 245.164 166.572 246.088 166.226 246.897C165.879 247.706 165.417 248.515 165.07 249.323C165.07 249.439 164.955 249.439 164.955 249.555L164.839 249.67C164.493 250.363 164.146 251.057 163.799 251.75C162.875 253.483 162.066 254.869 161.257 256.256C160.911 256.834 160.564 257.411 160.333 257.873C160.218 257.989 160.218 258.105 160.102 258.336C159.755 259.029 159.293 259.722 158.831 260.415L157.676 262.264C157.329 262.726 156.982 263.304 156.636 263.766C156.174 264.459 155.711 265.153 155.134 265.846L154.903 266.192C154.44 266.77 153.978 267.463 153.632 268.041L153.401 268.388C152.938 268.965 152.476 269.659 152.014 270.236L150.512 272.2C150.281 272.432 150.166 272.663 149.934 272.894C149.357 273.471 148.895 274.165 148.317 274.742C147.855 275.32 147.277 275.898 146.815 276.475L146.353 276.938C145.775 277.515 145.197 278.209 144.62 278.786L144.504 278.902C143.926 279.595 143.233 280.173 142.655 280.866C142.078 281.559 141.384 282.137 140.691 282.83C140.113 283.408 139.651 283.87 139.074 284.332L138.958 284.448C138.843 284.563 138.727 284.679 138.611 284.794C136.763 286.527 134.683 288.261 132.603 289.994L132.026 290.456C131.448 290.918 130.87 291.38 130.293 291.842C128.791 292.998 127.288 294.038 125.902 295.077C125.093 295.655 124.4 296.117 123.591 296.695L123.245 296.926C122.667 297.273 121.974 297.735 121.396 298.082C121.28 298.197 121.165 298.197 121.165 298.197C118.738 299.699 116.312 301.086 114.117 302.241C113.308 302.703 112.499 303.05 111.691 303.512L111.575 303.627C110.766 303.974 109.957 304.436 109.264 304.783C108.34 305.245 107.3 305.707 106.26 306.169C104.296 307.094 102.216 307.902 100.252 308.596C99.2122 308.942 98.1723 309.405 97.1324 309.751C96.2081 310.098 95.2838 310.329 94.3594 310.675C93.204 311.022 92.0486 311.369 90.7777 311.715C89.7378 311.946 88.8135 312.293 87.7736 312.524L87.427 312.64C86.5027 312.871 85.5784 313.102 84.6541 313.333L84.0764 313.448C83.3831 313.564 82.8054 313.679 82.1122 313.911C81.4189 314.026 80.7257 314.142 80.0324 314.373C79.2237 314.488 78.5304 314.719 77.7216 314.835C77.2595 314.95 76.7973 314.95 76.4507 315.066C76.3351 315.066 76.2196 315.066 76.104 315.066C75.5263 315.182 74.9486 315.297 74.3709 315.297C73.4466 315.413 72.5223 315.528 71.598 315.644C70.6736 315.759 69.7493 315.875 68.825 315.99C68.0162 316.106 67.2074 316.106 66.3986 316.221C65.2432 316.337 64.2034 316.337 63.048 316.452C62.1237 316.452 61.3149 316.568 60.3906 316.568C59.8129 316.568 59.2352 316.568 58.6575 316.568C59.5818 318.07 60.5061 319.572 61.4304 320.959L59.9284 321.305Z" fill="#FEB019"/>
<path d="M69.9797 326.185C67.9 326.185 65.8203 326.185 63.625 326.07L63.7405 324.799C65.9358 324.914 68.0155 324.914 70.0953 324.914C129.136 324.914 179.512 281.818 187.253 224.625L188.524 224.856C180.552 282.511 129.599 326.185 69.9797 326.185Z" fill="#0A0E17"/>
<path d="M59.9284 321.305C58.773 319.572 57.6176 317.723 56.5777 315.875L56 314.835H57.1554C58.0797 314.835 59.1196 314.835 60.0439 314.835C60.9682 314.835 61.777 314.835 62.7014 314.719C63.8568 314.719 64.8966 314.604 66.052 314.488C66.8608 314.488 67.6696 314.373 68.4784 314.257C69.4027 314.142 70.327 314.142 71.2514 314.026C72.1757 313.911 73.1 313.795 74.0243 313.68C74.602 313.564 75.2953 313.564 75.873 313.448H75.9885C76.5662 313.333 76.9128 313.333 77.375 313.217C78.1838 313.102 78.877 312.986 79.6858 312.755C80.379 312.64 81.0723 312.524 81.7655 312.409C82.4588 312.293 83.0365 312.177 83.7297 311.946L84.3074 311.831C85.2317 311.6 86.1561 311.369 87.0804 311.138L87.427 311.022C88.3513 310.791 89.3912 310.444 90.4311 310.213C91.5865 309.867 92.7419 309.52 93.8973 309.173C94.8216 308.942 95.7459 308.596 96.6703 308.249C97.7101 307.902 98.75 307.556 99.6743 307.094C101.639 306.285 103.718 305.476 105.682 304.667C106.607 304.205 107.647 303.743 108.571 303.281C109.38 302.934 110.073 302.588 110.882 302.125L110.997 302.01C111.806 301.548 112.615 301.201 113.424 300.739C115.734 299.584 118.045 298.197 120.472 296.695C120.472 296.695 120.587 296.579 120.703 296.579C121.396 296.117 121.974 295.771 122.551 295.424L122.898 295.193C123.707 294.731 124.4 294.153 125.209 293.691C126.595 292.767 128.097 291.727 129.599 290.571C130.177 290.109 130.755 289.647 131.332 289.185L131.91 288.723C133.99 286.99 135.954 285.372 137.803 283.639C137.918 283.523 138.034 283.408 138.149 283.292L138.265 283.177C138.843 282.715 139.305 282.137 139.882 281.675C140.576 281.097 141.153 280.404 141.847 279.826C142.424 279.248 143.118 278.555 143.695 277.862L143.811 277.746C144.388 277.169 144.966 276.591 145.428 276.013L145.891 275.551C146.353 274.973 146.93 274.396 147.393 273.818C147.97 273.24 148.432 272.547 148.895 271.969C149.126 271.738 149.241 271.507 149.472 271.276L150.974 269.427C151.436 268.85 151.899 268.157 152.361 267.579L152.592 267.232C153.054 266.655 153.401 266.077 153.863 265.499L154.094 265.152C154.556 264.459 155.018 263.766 155.48 263.073C155.827 262.611 156.174 262.148 156.52 261.571L157.676 259.838C157.676 259.838 157.676 259.722 157.791 259.722C158.253 259.029 158.6 258.451 158.947 257.758C159.062 257.642 159.178 257.527 159.178 257.411C159.524 256.834 159.871 256.256 160.102 255.794C160.911 254.407 161.72 253.021 162.528 251.288C162.875 250.594 163.222 249.901 163.568 249.208L163.684 249.092C163.684 248.977 163.799 248.977 163.799 248.861C164.261 248.052 164.608 247.244 164.955 246.435C165.301 245.626 165.763 244.817 166.11 243.893C166.457 243.2 166.688 242.391 167.034 241.698V241.582C167.034 241.582 167.034 241.467 167.15 241.467V241.351C167.728 239.849 168.421 238.232 169.114 236.152C169.461 235.228 169.692 234.419 170.038 233.494C170.385 232.57 170.616 231.761 170.847 230.837C171.078 229.913 171.425 229.104 171.656 228.18C171.887 227.255 172.118 226.331 172.349 225.407C172.58 224.482 172.811 223.558 173.043 222.634C173.274 221.709 173.505 220.785 173.62 219.861C173.851 218.59 174.082 217.434 174.313 216.163C174.429 215.586 174.429 215.239 174.545 214.777C174.66 214.084 174.776 213.39 174.891 212.813L175.007 211.657L175.931 212.35C178.126 214.084 180.322 215.932 182.286 217.781L181.361 218.705C179.628 217.088 177.895 215.47 175.931 214.084C175.931 214.315 175.815 214.661 175.815 214.892C175.7 215.355 175.7 215.817 175.584 216.279C175.353 217.665 175.122 218.936 174.891 220.092C174.66 221.016 174.545 221.94 174.313 222.865C174.082 223.789 173.851 224.713 173.62 225.638C173.389 226.562 173.158 227.486 172.927 228.411C172.696 229.335 172.465 230.259 172.118 231.184C171.887 232.108 171.54 233.032 171.309 233.841C171.078 234.765 170.732 235.574 170.385 236.498C169.692 238.578 168.999 240.196 168.421 241.698C168.421 241.813 168.305 241.929 168.305 242.044C167.959 242.853 167.728 243.546 167.381 244.355C167.034 245.164 166.572 246.088 166.226 246.897C165.879 247.706 165.417 248.515 165.07 249.323C165.07 249.439 164.955 249.439 164.955 249.555L164.839 249.67C164.493 250.363 164.146 251.057 163.799 251.75C162.875 253.483 162.066 254.869 161.257 256.256C160.911 256.834 160.564 257.411 160.333 257.873C160.218 257.989 160.218 258.105 160.102 258.336C159.755 259.029 159.293 259.722 158.831 260.415L157.676 262.264C157.329 262.726 156.982 263.304 156.636 263.766C156.174 264.459 155.711 265.153 155.134 265.846L154.903 266.192C154.44 266.77 153.978 267.463 153.632 268.041L153.401 268.388C152.938 268.965 152.476 269.659 152.014 270.236L150.512 272.2C150.281 272.432 150.166 272.663 149.934 272.894C149.357 273.471 148.895 274.165 148.317 274.742C147.855 275.32 147.277 275.898 146.815 276.475L146.353 276.938C145.775 277.515 145.197 278.209 144.62 278.786L144.504 278.902C143.926 279.595 143.233 280.173 142.655 280.866C142.078 281.559 141.384 282.137 140.691 282.83C140.113 283.408 139.651 283.87 139.074 284.332L138.958 284.448C138.843 284.563 138.727 284.679 138.611 284.794C136.763 286.527 134.683 288.261 132.603 289.994L132.026 290.456C131.448 290.918 130.87 291.38 130.293 291.842C128.791 292.998 127.288 294.038 125.902 295.077C125.093 295.655 124.4 296.117 123.591 296.695L123.245 296.926C122.667 297.273 121.974 297.735 121.396 298.082C121.28 298.197 121.165 298.197 121.165 298.197C118.738 299.699 116.312 301.086 114.117 302.241C113.308 302.703 112.499 303.05 111.691 303.512L111.575 303.627C110.766 303.974 109.957 304.436 109.264 304.783C108.34 305.245 107.3 305.707 106.26 306.169C104.296 307.094 102.216 307.902 100.252 308.596C99.2122 308.942 98.1723 309.405 97.1324 309.751C96.2081 310.098 95.2838 310.329 94.3594 310.675C93.204 311.022 92.0486 311.369 90.7777 311.715C89.7378 311.946 88.8135 312.293 87.7736 312.524L87.427 312.64C86.5027 312.871 85.5784 313.102 84.6541 313.333L84.0764 313.448C83.3831 313.564 82.8054 313.679 82.1122 313.911C81.4189 314.026 80.7257 314.142 80.0324 314.373C79.2237 314.488 78.5304 314.719 77.7216 314.835C77.2595 314.95 76.7973 314.95 76.4507 315.066C76.3351 315.066 76.2196 315.066 76.104 315.066C75.5263 315.182 74.9486 315.297 74.3709 315.297C73.4466 315.413 72.5223 315.528 71.598 315.644C70.6736 315.759 69.7493 315.875 68.825 315.99C68.0162 316.106 67.2074 316.106 66.3986 316.221C65.2432 316.337 64.2034 316.337 63.048 316.452C62.1237 316.452 61.3149 316.568 60.3906 316.568C59.8129 316.568 59.2352 316.568 58.6575 316.568C59.5818 318.07 60.5061 319.572 61.4304 320.959L59.9284 321.305Z" fill="white"/>
<path d="M69.9797 326.185C67.9 326.185 65.8203 326.185 63.625 326.07L63.7405 324.799C65.9358 324.914 68.0155 324.914 70.0953 324.914C129.136 324.914 179.512 281.818 187.253 224.625L188.524 224.856C180.552 282.511 129.599 326.185 69.9797 326.185Z" fill="white"/>
<path d="M96.436 348.023L92.392 348.254C91.6988 348.254 91.2366 347.792 91.2366 347.099L91.1211 343.748C91.1211 343.055 91.5833 342.592 92.2765 342.592L96.3204 342.361C97.0137 342.361 97.4758 342.823 97.4758 343.517L97.5914 346.867C97.4758 347.445 97.0137 348.023 96.436 348.023Z" fill="white"/>
<path d="M105.338 347.099L101.294 347.33C100.601 347.33 100.139 346.868 100.139 346.175L100.023 342.824C100.023 342.131 100.486 341.669 101.179 341.669L105.223 341.438C105.916 341.438 106.378 341.9 106.378 342.593L106.494 345.944C106.494 346.521 106.032 347.099 105.338 347.099Z" fill="white"/>
<path d="M114.924 345.596L110.88 345.827C110.187 345.827 109.725 345.365 109.725 344.672L109.609 341.321C109.609 340.628 110.072 340.166 110.765 340.166L114.809 339.935C115.502 339.935 115.964 340.397 115.964 341.09L116.08 344.441C115.964 345.018 115.502 345.596 114.924 345.596Z" fill="white"/>
<path d="M123.936 343.169L119.892 343.4C119.199 343.4 118.737 342.938 118.737 342.245L118.621 338.894C118.621 338.201 119.083 337.739 119.776 337.739L123.82 337.508C124.514 337.508 124.976 337.97 124.976 338.663L125.091 342.014C124.976 342.707 124.514 343.169 123.936 343.169Z" fill="white"/>
<path d="M132.83 339.125L128.787 339.356C128.093 339.356 127.631 338.894 127.631 338.201L127.516 334.85C127.516 334.157 127.978 333.695 128.671 333.695L132.715 333.464C133.408 333.464 133.87 333.926 133.87 334.619L133.986 337.97C133.986 338.548 133.408 339.125 132.83 339.125Z" fill="white"/>
<path d="M142.42 334.273L138.376 334.504C137.683 334.504 137.221 334.042 137.221 333.348L137.105 329.998C137.105 329.305 137.568 328.842 138.261 328.842L142.305 328.611C142.998 328.611 143.46 329.073 143.46 329.767L143.576 333.117C143.576 333.695 142.998 334.273 142.42 334.273Z" fill="white"/>
<path d="M151.092 329.304L147.048 329.535C146.355 329.535 145.893 329.073 145.893 328.38L145.777 325.029C145.777 324.336 146.24 323.874 146.933 323.874L150.977 323.643C151.67 323.643 152.132 324.105 152.132 324.798L152.248 328.149C152.248 328.726 151.67 329.304 151.092 329.304Z" fill="white"/>
<path d="M160.448 322.371L156.404 322.603C155.71 322.603 155.248 322.14 155.248 321.447L155.133 318.096C155.133 317.403 155.595 316.941 156.288 316.941L160.332 316.71C161.025 316.71 161.488 317.172 161.488 317.865L161.603 321.216C161.488 321.794 161.025 322.371 160.448 322.371Z" fill="white"/>
<path d="M168.307 315.325L164.263 315.556C163.57 315.556 163.108 315.093 163.108 314.4L162.992 311.05C162.992 310.356 163.454 309.894 164.148 309.894L168.192 309.663C168.885 309.663 169.347 310.125 169.347 310.818L169.462 314.169C169.462 314.747 169 315.209 168.307 315.325Z" fill="white"/>
<path d="M176.159 306.89L172.115 307.121C171.421 307.121 170.959 306.659 170.959 305.966L170.844 302.615C170.844 301.922 171.306 301.46 171.999 301.46L176.043 301.229C176.736 301.229 177.198 301.691 177.198 302.384L177.314 305.735C177.314 306.312 176.852 306.89 176.159 306.89Z" fill="white"/>
<path d="M182.174 298.455L178.13 298.687C177.437 298.687 176.975 298.224 176.975 297.531L176.859 294.18C176.859 293.487 177.322 293.025 178.015 293.025L182.059 292.794C182.752 292.794 183.214 293.256 183.214 293.949L183.33 297.3C183.33 297.878 182.752 298.455 182.174 298.455Z" fill="white"/>
<path d="M188.061 289.674L184.017 289.905C183.324 289.905 182.862 289.443 182.862 288.75L182.746 285.399C182.746 284.706 183.208 284.244 183.901 284.244L187.945 284.013C188.639 284.013 189.101 284.475 189.101 285.168L189.216 288.519C189.216 289.097 188.754 289.674 188.061 289.674Z" fill="white"/>
<path d="M192.682 280.894L188.638 281.125C187.945 281.125 187.483 280.663 187.483 279.97L187.367 276.619C187.367 275.926 187.829 275.463 188.523 275.463L192.567 275.232C193.26 275.232 193.722 275.695 193.722 276.388L193.837 279.738C193.837 280.316 193.375 280.894 192.682 280.894Z" fill="white"/>
<path d="M196.377 272.69L192.333 272.921C191.64 272.921 191.178 272.459 191.178 271.765L191.062 268.415C191.062 267.722 191.525 267.259 192.218 267.259L196.262 267.028C196.955 267.028 197.417 267.49 197.417 268.184L197.533 271.534C197.417 272.112 196.955 272.69 196.377 272.69Z" fill="white"/>
<path d="M198.694 264.718L194.65 264.949C193.957 264.949 193.494 264.487 193.494 263.794L193.379 260.443C193.379 259.75 193.841 259.288 194.534 259.288L198.578 259.057C199.271 259.057 199.734 259.519 199.734 260.212L199.849 263.563C199.849 264.14 199.387 264.718 198.694 264.718Z" fill="white"/>
<path d="M200.311 256.052L196.267 256.283C195.574 256.283 195.112 255.821 195.112 255.128L194.996 251.777C194.996 251.084 195.458 250.622 196.151 250.622L200.195 250.391C200.889 250.391 201.351 250.853 201.351 251.546L201.466 254.897C201.466 255.474 200.889 256.052 200.311 256.052Z" fill="white"/>
<path d="M169.348 208.451C156.985 200.594 142.427 196.088 126.713 196.088C105.107 196.088 85.5809 204.638 71.2539 218.503C85.5809 208.335 103.028 202.327 121.861 202.327C139.769 202.327 156.407 207.757 170.157 217.001C170.041 214.112 169.81 211.224 169.348 208.451Z" fill="white"/>
</svg>
